<svg class="svg-icon" style="width: 1em; height: 1em;vertical-align: middle;fill: currentColor;overflow: hidden;" viewBox="0 0 1024 1024" version="1.1" xmlns="http://www.w3.org/2000/svg"><path d="M469.333333 85.333333a426.666667 426.666667 0 1 0 426.666667 426.666667A426.666667 426.666667 0 0 0 469.333333 85.333333z m0 768a341.333333 341.333333 0 1 1 341.333334-341.333333 341.333333 341.333333 0 0 1-341.333334 341.333333z m132.266667-314.453333L512 487.253333V298.666667a42.666667 42.666667 0 0 0-85.333333 0v218.453333a27.733333 27.733333 0 0 0 2.133333 8.533333 37.973333 37.973333 0 0 0 3.413333 7.253334 36.693333 36.693333 0 0 0 4.266667 6.826666l6.826667 5.546667 3.84 3.84 110.933333 64a42.666667 42.666667 0 0 0 21.333333 5.546667 42.666667 42.666667 0 0 0 21.333334-79.786667z"  /></svg>