<svg class="svg-icon" style="width: 1em; height: 1em;vertical-align: middle;fill: currentColor;overflow: hidden;" viewBox="0 0 1024 1024" version="1.1" xmlns="http://www.w3.org/2000/svg"><path d="M170.666667 256H85.333333v597.333333a85.333333 85.333333 0 0 0 85.333334 85.333334h597.333333v-85.333334H170.666667M768 298.666667h-128v234.666666a106.666667 106.666667 0 0 1-106.666667 106.666667 106.666667 106.666667 0 0 1-106.666666-106.666667 106.666667 106.666667 0 0 1 106.666666-106.666666c24.32 0 46.08 8.106667 64 21.333333V213.333333h170.666667m85.333333-128H341.333333a85.333333 85.333333 0 0 0-85.333333 85.333334v512a85.333333 85.333333 0 0 0 85.333333 85.333333h512a85.333333 85.333333 0 0 0 85.333334-85.333333V170.666667a85.333333 85.333333 0 0 0-85.333334-85.333334z" fill="" /></svg>