<svg class="svg-icon" style="width: 1.0009765625em; height: 1em;vertical-align: middle;fill: currentColor;overflow: hidden;" viewBox="0 0 1025 1024" version="1.1" xmlns="http://www.w3.org/2000/svg"><path d="M380.563302 274.870857q-34.304 52.589714-78.262857 156.013714-12.580571-25.746286-21.138286-41.398857t-23.113143-36.278857-29.110857-32.256-35.986286-19.968-46.592-8.265143l-128 0q-7.972571 0-13.165714-5.12t-5.12-13.165714l0-109.714286q0-7.972571 5.12-13.165714t13.165714-5.12l128 0q142.848 0 234.276571 128.585143zM1024.001016 731.428571q0 7.972571-5.12 13.165714l-182.857143 182.857143q-5.12 5.12-13.165714 5.12-7.460571 0-12.873143-5.412571t-5.412571-12.873143l0-109.714286q-18.285714 0-48.566857 0.292571t-46.299429 0.585143-41.691429-0.585143-40.594286-2.852571-36.571429-5.997714-35.986286-10.605714-33.133714-16.310857-33.718857-22.820571-31.451429-30.573714-32.036571-39.716571q33.718857-53.174857 77.677714-156.013714 12.580571 25.746286 21.138286 41.398857t23.113143 36.278857 29.110857 32.256 35.986286 19.968 46.592 8.265143l146.285714 0 0-109.714286q0-7.972571 5.12-13.165714t13.165714-5.12q6.875429 0 13.677714 5.705143l182.272 182.272q5.12 5.12 5.12 13.165714zM1024.001016 219.428571q0 7.972571-5.12 13.165714l-182.857143 182.857143q-5.12 5.12-13.165714 5.12-7.460571 0-12.873143-5.412571t-5.412571-12.873143l0-109.714286-146.285714 0q-27.428571 0-49.737143 8.557714t-39.424 25.746286-29.110857 35.108571-25.746286 44.251429q-18.285714 35.401143-44.544 97.718857-16.603429 37.741714-28.306286 63.414857t-30.866286 59.977143-36.571429 57.124571-42.276571 47.396571-51.419429 39.131429-60.854857 23.990857-73.142857 9.435429l-128 0q-7.972571 0-13.165714-5.12t-5.12-13.165714l0-109.714286q0-7.972571 5.12-13.165714t13.165714-5.12l128 0q27.428571 0 49.737143-8.557714t39.424-25.746286 29.110857-35.108571 25.746286-44.251429q18.285714-35.401143 44.544-97.718857 16.603429-37.741714 28.306286-63.414857t30.866286-59.977143 36.571429-57.124571 42.276571-47.396571 51.419429-39.131429 60.854857-23.990857 73.142857-9.435429l146.285714 0 0-109.714286q0-7.972571 5.12-13.165714t13.165714-5.12q6.875429 0 13.677714 5.705143l182.272 182.272q5.12 5.12 5.12 13.165714z"  /></svg>