<svg class="svg-icon" style="width: 1em; height: 1em;vertical-align: middle;fill: currentColor;overflow: hidden;" viewBox="0 0 1024 1024" version="1.1" xmlns="http://www.w3.org/2000/svg"><path d="M121.218263 670.880238c20.811986-16.436989 51.029966-12.812991 67.371955 8.060995l124.558916 158.369893V48.028658c0-26.498982 21.499986-47.997968 47.997968-47.997968s47.997968 21.499986 47.997967 47.997968V975.990032c0 20.467986-12.967991 38.654974-32.310978 45.37297a47.759968 47.759968 0 0 1-15.686989 2.624998c-14.43799 0-28.467981-6.530996-37.717975-18.343988L113.156269 738.251193c-16.404989-20.810986-12.779991-50.997966 8.061994-67.371955zM647.165909 2.655688c19.249987-6.717995 40.810973-0.406 53.404964 15.71799l210.272858 267.426819c16.404989 20.811986 12.779991 50.997966-8.061994 67.371955-20.811986 16.436989-51.029966 12.811991-67.371955-8.061995L710.849866 186.742564v789.249468c0 26.497982-21.499986 47.997968-47.997968 47.997968s-47.997968-21.499986-47.997967-47.997968V48.029658c0-20.467986 12.967991-38.653974 32.310978-45.37297z" fill="" /></svg>